<svg xmlns="http://www.w3.org/2000/svg" id="root" fill="currentColor" viewBox="0 0 30 30"><path d="M17.75 20.33a15.17 15.17 0 0 1-8.07-8.09l4.25-4.26L6.11.15 2.15 4.12A7.38 7.38 0 0 0 0 9.37C0 18.44 11.57 30 20.63 30a7.36 7.36 0 0 0 5.25-2.14l3.97-3.97-7.83-7.83-4.27 4.27Zm6.37 5.76a4.87 4.87 0 0 1-3.5 1.41C12.84 27.5 2.5 17.17 2.5 9.37a4.88 4.88 0 0 1 1.41-3.49l2.2-2.2 4.3 4.3-3.67 3.67.3.77A17.97 17.97 0 0 0 17.6 22.96l.76.3 3.66-3.67 4.3 4.3-2.2 2.2ZM17.5 2.5V0A12.51 12.51 0 0 1 30 12.5h-2.5a10.01 10.01 0 0 0-10-10Zm0 5V5a7.5 7.5 0 0 1 7.5 7.5h-2.5a5 5 0 0 0-5-5Z"/></svg>