<svg xmlns="http://www.w3.org/2000/svg" id="root" fill="currentColor" viewBox="0 0 45 45"><path d="M4.16 37.1v-6.94a2.43 2.43 0 0 1 2.19-2.44h5.5c.45 0 .85.1 1.21.3.36.18.7.46.99.83a9.92 9.92 0 0 0 8.45 4.5 10.12 10.12 0 0 0 8.49-4.5 2.51 2.51 0 0 1 2.15-1.13h5.51c.6.05 1.13.31 1.57.79.44.47.66 1.02.66 1.65v6.94H29.24v-4.51a8.6 8.6 0 0 1-3.16 1.72 12.38 12.38 0 0 1-7.12.04 9.02 9.02 0 0 1-3.18-1.69v4.44H4.16Zm18.34-6.88a6.6 6.6 0 0 1-3.31-.85 7.5 7.5 0 0 1-2.55-2.29 9.3 9.3 0 0 0-1.1-1.16 6.5 6.5 0 0 0-1.3-.91 23.51 23.51 0 0 1 4.39-1.27 23.7 23.7 0 0 1 7.74 0c1.24.2 2.71.63 4.42 1.27-.5.25-.94.56-1.32.9-.38.36-.74.75-1.08 1.17a7.44 7.44 0 0 1-2.56 2.3 6.85 6.85 0 0 1-3.33.84Zm-13.54-6.2a4.5 4.5 0 0 1-3.3-1.38 4.5 4.5 0 0 1-1.4-3.3 4.5 4.5 0 0 1 1.4-3.3 4.5 4.5 0 0 1 3.3-1.39 4.5 4.5 0 0 1 3.3 1.4 4.5 4.5 0 0 1 1.38 3.3 4.5 4.5 0 0 1-1.38 3.3 4.5 4.5 0 0 1-3.3 1.38Zm27.08 0a4.5 4.5 0 0 1-3.3-1.38 4.5 4.5 0 0 1-1.38-3.3 4.5 4.5 0 0 1 1.38-3.3 4.5 4.5 0 0 1 3.3-1.39 4.5 4.5 0 0 1 3.3 1.4 4.5 4.5 0 0 1 1.4 3.3 4.5 4.5 0 0 1-1.4 3.3 4.5 4.5 0 0 1-3.3 1.38Zm-13.54-4.5a4.5 4.5 0 0 1-3.3-1.38 4.5 4.5 0 0 1-1.39-3.3 4.5 4.5 0 0 1 1.4-3.3 4.5 4.5 0 0 1 3.29-1.39 4.5 4.5 0 0 1 3.3 1.4 4.5 4.5 0 0 1 1.39 3.3 4.5 4.5 0 0 1-1.4 3.3 4.5 4.5 0 0 1-3.29 1.38Z"/></svg>