<svg xmlns="http://www.w3.org/2000/svg" width="45" height="45" viewBox="0 0 45 45" fill="none">
  <path d="M4.16105 37.0962V30.1587C4.16105 29.5337 4.36898 28.9832 4.78486 28.5072C5.2007 28.0312 5.72114 27.7692 6.34617 27.7212H11.8594C12.3017 27.7212 12.7031 27.8179 13.0637 28.0114C13.4243 28.2049 13.7524 28.4843 14.0481 28.8497C15.0024 30.2824 16.2152 31.39 17.6863 32.1725C19.1575 32.9549 20.762 33.3462 22.5 33.3462C24.2139 33.3462 25.8125 32.9549 27.2957 32.1725C28.7788 31.39 30.0096 30.2824 30.988 28.8497C31.2356 28.4843 31.5457 28.2049 31.9183 28.0114C32.2909 27.8179 32.6983 27.7212 33.1406 27.7212H38.6538C39.2548 27.7692 39.7752 28.0312 40.2151 28.5072C40.6551 28.9832 40.875 29.5337 40.875 30.1587V37.0962H29.25V32.5889C28.3293 33.3798 27.277 33.9537 26.0932 34.3107C24.9093 34.6677 23.7115 34.8462 22.5 34.8462C21.2885 34.8462 20.1106 34.6797 18.9663 34.3468C17.8221 34.0138 16.762 33.4519 15.786 32.661V37.0962H4.16105ZM22.5 30.2163C21.3077 30.2163 20.2031 29.9357 19.1863 29.3744C18.1695 28.8131 17.3221 28.0492 16.6442 27.0829C16.3029 26.6574 15.9375 26.2692 15.5481 25.9182C15.1587 25.5673 14.7248 25.2644 14.2464 25.0096C15.9315 24.3702 17.3912 23.9483 18.6256 23.744C19.86 23.5396 21.1514 23.4375 22.5 23.4375C23.8486 23.4375 25.14 23.5396 26.3744 23.744C27.6088 23.9483 29.0805 24.3702 30.7897 25.0096C30.2873 25.2644 29.8473 25.5673 29.4699 25.9182C29.0925 26.2692 28.7332 26.6574 28.3918 27.0829C27.7139 28.0492 26.8606 28.8131 25.8317 29.3744C24.8029 29.9357 23.6923 30.2163 22.5 30.2163ZM8.95674 24.0288C7.68267 24.0288 6.58291 23.5661 5.65744 22.6406C4.73197 21.7151 4.26923 20.6154 4.26923 19.3413C4.26923 18.0673 4.73197 16.9675 5.65744 16.0421C6.58291 15.1166 7.68267 14.6538 8.95674 14.6538C10.2308 14.6538 11.3305 15.1166 12.256 16.0421C13.1815 16.9675 13.6442 18.0673 13.6442 19.3413C13.6442 20.6154 13.1815 21.7151 12.256 22.6406C11.3305 23.5661 10.2308 24.0288 8.95674 24.0288ZM36.0433 24.0288C34.7692 24.0288 33.6695 23.5661 32.744 22.6406C31.8185 21.7151 31.3558 20.6154 31.3558 19.3413C31.3558 18.0673 31.8185 16.9675 32.744 16.0421C33.6695 15.1166 34.7692 14.6538 36.0433 14.6538C37.3173 14.6538 38.4171 15.1166 39.3426 16.0421C40.268 16.9675 40.7308 18.0673 40.7308 19.3413C40.7308 20.6154 40.268 21.7151 39.3426 22.6406C38.4171 23.5661 37.3173 24.0288 36.0433 24.0288ZM22.5 19.5288C21.226 19.5288 20.1262 19.0661 19.2007 18.1406C18.2752 17.2151 17.8125 16.1154 17.8125 14.8413C17.8125 13.5673 18.2752 12.4675 19.2007 11.5421C20.1262 10.6166 21.226 10.1538 22.5 10.1538C23.774 10.1538 24.8738 10.6166 25.7993 11.5421C26.7248 12.4675 27.1875 13.5673 27.1875 14.8413C27.1875 16.1154 26.7248 17.2151 25.7993 18.1406C24.8738 19.0661 23.774 19.5288 22.5 19.5288Z" fill="#45031E"/>
</svg>